{
  "accessors": [
    {
      "bufferView": 2,
      "componentType": 5126,
      "count": 633,
      "max": [
        15.378684043884277,
        13.979292869567871,
        25.378684997558594
      ],
      "min": [
        -15.378684043884277,
        0.001314997673034668,
        -25.378684997558594
      ],
      "type": "VEC3"
    },
    {
      "bufferView": 2,
      "byteOffset": 7596,
      "componentType": 5126,
      "count": 633,
      "max": [
        0.9975771903991699,
        0.9975758790969849,
        0.9975736737251282
      ],
      "min": [
        -0.9975771903991699,
        -0.9807885885238647,
        -0.9975736737251282
      ],
      "type": "VEC3"
    },
    {
      "bufferView": 1,
      "componentType": 5126,
      "count": 633,
      "max": [
        0.8750000596046448,
        1.0
      ],
      "min": [
        0.125,
        0.0
      ],
      "type": "VEC2"
    },
    {
      "bufferView": 0,
      "componentType": 5125,
      "count": 2448,
      "type": "SCALAR"
    },
    {
      "bufferView": 2,
      "byteOffset": 15192,
      "componentType": 5126,
      "count": 2722,
      "max": [
        7.905942916870117,
        7.2647576332092285,
        13.113980293273926
      ],
      "min": [
        -7.905942916870117,
        6.980773448944092,
        -13.11397933959961
      ],
      "type": "VEC3"
    },
    {
      "bufferView": 2,
      "byteOffset": 47856,
      "componentType": 5126,
      "count": 2722,
      "max": [
        1.0,
        1.0,
        1.0
      ],
      "min": [
        -1.0,
        -1.0,
        -1.0
      ],
      "type": "VEC3"
    },
    {
      "bufferView": 3,
      "componentType": 5126,
      "count": 2722,
      "max": [
        1.0,
        1.0,
        0.9999980330467224,
        1.0
      ],
      "min": [
        -0.292650043964386,
        -1.0,
        -1.0,
        -1.0
      ],
      "type": "VEC4"
    },
    {
      "bufferView": 1,
      "byteOffset": 5064,
      "componentType": 5126,
      "count": 2722,
      "max": [
        1.0000001192092896,
        1.0000001192092896
      ],
      "min": [
        0.0,
        0.0
      ],
      "type": "VEC2"
    },
    {
      "bufferView": 1,
      "byteOffset": 26840,
      "componentType": 5126,
      "count": 2722,
      "max": [
        1.0000001192092896,
        1.0000001192092896
      ],
      "min": [
        0.0,
        0.0
      ],
      "type": "VEC2"
    },
    {
      "bufferView": 1,
      "byteOffset": 48616,
      "componentType": 5126,
      "count": 2722,
      "max": [
        1.0000001192092896,
        1.0000001192092896
      ],
      "min": [
        0.0,
        0.0
      ],
      "type": "VEC2"
    },
    {
      "bufferView": 1,
      "byteOffset": 70392,
      "componentType": 5126,
      "count": 2722,
      "max": [
        1.0000001192092896,
        1.0000001192092896
      ],
      "min": [
        0.0,
        0.0
      ],
      "type": "VEC2"
    },
    {
      "bufferView": 0,
      "byteOffset": 9792,
      "componentType": 5125,
      "count": 14208,
      "type": "SCALAR"
    }
  ],
  "asset": {
    "extras": {
      "author": "VkYsNuiPeRaJoK (https://sketchfab.com/VkYsNuiPeRaJoK)",
      "license": "CC-BY-4.0 (http://creativecommons.org/licenses/by/4.0/)",
      "source": "https://sketchfab.com/3d-models/table-d9014fa719c048bebb3d6867b3b60241",
      "title": "Table"
    },
    "generator": "Sketchfab-14.33.0",
    "version": "2.0"
  },
  "bufferViews": [
    {
      "buffer": 0,
      "byteLength": 66624,
      "name": "floatBufferViews",
      "target": 34963
    },
    {
      "buffer": 0,
      "byteLength": 92168,
      "byteOffset": 66624,
      "byteStride": 8,
      "name": "floatBufferViews",
      "target": 34962
    },
    {
      "buffer": 0,
      "byteLength": 80520,
      "byteOffset": 158792,
      "byteStride": 12,
      "name": "floatBufferViews",
      "target": 34962
    },
    {
      "buffer": 0,
      "byteLength": 43552,
      "byteOffset": 239312,
      "byteStride": 16,
      "name": "floatBufferViews",
      "target": 34962
    }
  ],
  "buffers": [
    {
      "byteLength": 282864,
      "uri": "scene.bin"
    }
  ],
  "extensionsUsed": [
    "KHR_texture_transform"
  ],
  "images": [
    {
      "uri": "textures/Wood.001_baseColor.jpeg"
    },
    {
      "uri": "textures/Wood.001_metallicRoughness.png"
    },
    {
      "uri": "textures/Wood.001_normal.jpeg"
    }
  ],
  "materials": [
    {
      "doubleSided": true,
      "name": "Metal",
      "pbrMetallicRoughness": {
        "baseColorFactor": [
          0.00901808,
          0.00901808,
          0.00901808,
          1.0
        ],
        "metallicFactor": 0.5,
        "roughnessFactor": 0.5
      }
    },
    {
      "doubleSided": true,
      "name": "Wood.001",
      "normalTexture": {
        "index": 2
      },
      "pbrMetallicRoughness": {
        "baseColorTexture": {
          "extensions": {
            "KHR_texture_transform": {
              "rotation": 1.5707963267948966
            }
          },
          "index": 0
        },
        "metallicFactor": 0.0,
        "metallicRoughnessTexture": {
          "index": 1
        }
      }
    }
  ],
  "meshes": [
    {
      "name": "Object_0",
      "primitives": [
        {
          "attributes": {
            "NORMAL": 1,
            "POSITION": 0,
            "TEXCOORD_0": 2
          },
          "indices": 3,
          "material": 0,
          "mode": 4
        }
      ]
    },
    {
      "name": "Object_1",
      "primitives": [
        {
          "attributes": {
            "NORMAL": 5,
            "POSITION": 4,
            "TANGENT": 6,
            "TEXCOORD_0": 7,
            "TEXCOORD_1": 8,
            "TEXCOORD_2": 9,
            "TEXCOORD_3": 10
          },
          "indices": 11,
          "material": 1,
          "mode": 4
        }
      ]
    }
  ],
  "nodes": [
    {
      "children": [
        1
      ],
      "matrix": [
        1.0,
        0.0,
        0.0,
        0.0,
        0.0,
        2.220446049250313e-16,
        -1.0,
        0.0,
        0.0,
        1.0,
        2.220446049250313e-16,
        0.0,
        0.0,
        0.0,
        0.0,
        1.0
      ],
      "name": "Sketchfab_model"
    },
    {
      "children": [
        2
      ],
      "name": "root"
    },
    {
      "children": [
        3,
        5
      ],
      "matrix": [
        1.0,
        0.0,
        0.0,
        0.0,
        0.0,
        2.220446049250313e-16,
        1.0,
        0.0,
        0.0,
        -1.0,
        2.220446049250313e-16,
        0.0,
        0.0,
        0.0,
        0.0,
        1.0
      ],
      "name": "GLTF_SceneRootNode"
    },
    {
      "children": [
        4
      ],
      "matrix": [
        0.5,
        0.0,
        0.0,
        0.0,
        0.0,
        0.5,
        0.0,
        0.0,
        0.0,
        0.0,
        0.5,
        0.0,
        0.0,
        0.0,
        0.0,
        1.0
      ],
      "name": "Table_0"
    },
    {
      "mesh": 0,
      "name": "Object_4"
    },
    {
      "children": [
        6
      ],
      "matrix": [
        1.043182373046875,
        0.0,
        0.0,
        0.0,
        0.0,
        1.0,
        0.0,
        0.0,
        0.0,
        0.0,
        1.0672762393951416,
        0.0,
        0.0,
        0.0,
        0.0,
        1.0
      ],
      "name": "Table.001_1"
    },
    {
      "mesh": 1,
      "name": "Object_6"
    }
  ],
  "samplers": [
    {
      "magFilter": 9729,
      "minFilter": 9987,
      "wrapS": 10497,
      "wrapT": 10497
    }
  ],
  "scene": 0,
  "scenes": [
    {
      "name": "Sketchfab_Scene",
      "nodes": [
        0
      ]
    }
  ],
  "textures": [
    {
      "sampler": 0,
      "source": 0
    },
    {
      "sampler": 0,
      "source": 1
    },
    {
      "sampler": 0,
      "source": 2
    }
  ]
}
