{
    "asset" : {
        "generator" : "Khronos glTF Blender I/O v3.3.32",
        "version" : "2.0"
    },
    "scene" : 0,
    "scenes" : [
        {
            "name" : "Scene",
            "nodes" : [
                0
            ]
        }
    ],
    "nodes" : [
        {
            "mesh" : 0,
            "name" : "Cliff",
            "scale" : [
                5.5,
                7,
                8
            ],
            "translation" : [
                0.5700000524520874,
                -2.549999952316284,
                6.250000476837158
            ]
        }
    ],
    "meshes" : [
        {
            "name" : "Plane",
            "primitives" : [
                {
                    "attributes" : {
                        "POSITION" : 0,
                        "NORMAL" : 1,
                        "TEXCOORD_0" : 2
                    },
                    "indices" : 3
                }
            ]
        }
    ],
    "accessors" : [
        {
            "bufferView" : 0,
            "componentType" : 5126,
            "count" : 2635,
            "max" : [
                0.9872572422027588,
                0.95551997423172,
                -0.25211066007614136
            ],
            "min" : [
                -1.0083751678466797,
                -0.0030055297538638115,
                -0.7807767987251282
            ],
            "type" : "VEC3"
        },
        {
            "bufferView" : 1,
            "componentType" : 5126,
            "count" : 2635,
            "type" : "VEC3"
        },
        {
            "bufferView" : 2,
            "componentType" : 5126,
            "count" : 2635,
            "type" : "VEC2"
        },
        {
            "bufferView" : 3,
            "componentType" : 5123,
            "count" : 3963,
            "type" : "SCALAR"
        }
    ],
    "bufferViews" : [
        {
            "buffer" : 0,
            "byteLength" : 31620,
            "byteOffset" : 0,
            "target" : 34962
        },
        {
            "buffer" : 0,
            "byteLength" : 31620,
            "byteOffset" : 31620,
            "target" : 34962
        },
        {
            "buffer" : 0,
            "byteLength" : 21080,
            "byteOffset" : 63240,
            "target" : 34962
        },
        {
            "buffer" : 0,
            "byteLength" : 7926,
            "byteOffset" : 84320,
            "target" : 34963
        }
    ],
    "buffers" : [
        {
            "byteLength" : 92248,
            "uri" : "data:application/octet-stream;base64,"
        }
    ]
}
